<svg width="81" height="69" viewBox="0 0 81 69" xmlns="http://www.w3.org/2000/svg">
    <path d="m37.263 51.667.7-2.275c0-5.598 1.516-12.188 4.549-19.769 3.032-7.58 7.173-14.316 12.421-20.206C60.181 3.527 65.371.582 70.503.582H81v12.421c-1.05 1.05-2.8 2.625-5.248 4.724l-6.298 5.248c-4.55 3.733-7.29 7.698-8.223 11.897 6.765 5.131 10.147 11.08 10.147 17.844 0 6.648-3.79 11.313-11.372 13.996-2.099.816-4.781 1.224-8.047 1.224-5.832 0-10.73-5.073-14.696-15.22v-1.05zM0 51.84l.7-2.274c0-5.598 1.516-12.188 4.548-19.769 3.033-7.58 7.173-14.316 12.422-20.206C22.918 3.702 28.108.757 33.24.757h10.497v12.421c-1.75.933-4.55 3.179-8.398 6.736-3.849 3.557-6.181 5.86-6.998 6.91-2.332 3.15-3.79 5.89-4.373 8.223 6.764 5.015 10.146 10.321 10.146 15.92 0 5.598-1.836 9.855-5.51 12.77-3.674 2.917-7.698 4.374-12.072 4.374-4.373 0-7.756-1.34-10.146-4.023C3.995 61.405 1.866 57.673 0 52.89v-1.05z" fill="#D2BB8F" fill-rule="evenodd"/>
</svg>
