<svg width="1141" height="438" viewBox="0 0 1141 438" xmlns="http://www.w3.org/2000/svg">
    <path d="M9.334 26.21c20.624-8.431 43.29-14.546 67.997-18.343C109.25 2.962 666.22 2.192 713.981 1c27.87-.697 85.787 6.868 121.527 6.868h108c41.127 0 79.405 6.453 129.089 6.453h52.973c8.284 0 15 6.715 15 15 0 .217-.005.434-.014.651-2.88 66.242-4.808 110.656-5.788 133.242-2.238 51.603 0 100.579 0 131.834 0 44.46 1.22 78.541 3.66 102.247a15 15 0 0 1-9.61 15.563c-20.574 7.791-39.314 11.687-56.221 11.687-59.708 0-140.213-1.508-176.679-1.508-24.516 0-113.483 5.652-138.924 5.652-70.824 0-592.244 14.697-657.643 6.613-17.837-2.205-46.11-5.752-84.82-10.643a15 15 0 0 1-13.116-14.574c-1.144-55.86-1.05-94.206.28-115.037 4.582-71.709 0-155.461 0-197.526 0-25.522-.54-44.21-1.622-56.063A15 15 0 0 1 9.334 26.21z" fill="#FFF" fill-rule="evenodd"/>
</svg>
