<svg xmlns="http://www.w3.org/2000/svg" width="22" height="22" viewBox="0 0 22 22">
    <path fill="#000" fill-rule="evenodd" d="M2.2 4h17.6c.596 0 1.111-.198 1.547-.594C21.782 3.01 22 2.542 22 2c0-.542-.218-1.01-.653-1.406A2.223 2.223 0 0 0 19.8 0H2.2C1.604 0 1.089.198.653.594.218.99 0 1.458 0 2c0 .542.218 1.01.653 1.406C1.09 3.802 1.604 4 2.2 4zm17.6 5H2.2c-.596 0-1.111.198-1.547.594C.218 9.99 0 10.458 0 11c0 .542.218 1.01.653 1.406.436.396.951.594 1.547.594h17.6c.596 0 1.111-.198 1.547-.594.435-.396.653-.864.653-1.406 0-.542-.218-1.01-.653-1.406A2.223 2.223 0 0 0 19.8 9zm0 9H2.2c-.596 0-1.111.198-1.547.594C.218 18.99 0 19.458 0 20c0 .542.218 1.01.653 1.406.436.396.951.594 1.547.594h17.6c.596 0 1.111-.198 1.547-.594.435-.396.653-.864.653-1.406 0-.542-.218-1.01-.653-1.406A2.223 2.223 0 0 0 19.8 18z"/>
</svg>
