<svg width="30" height="30" viewBox="0 0 30 30" xmlns="http://www.w3.org/2000/svg">
    <defs>
        <filter x="-.6%" y="-10%" width="101.2%" height="120%" filterUnits="objectBoundingBox" id="a">
            <feOffset dy="2" in="SourceAlpha" result="shadowOffsetOuter1"/>
            <feGaussianBlur stdDeviation="2" in="shadowOffsetOuter1" result="shadowBlurOuter1"/>
            <feColorMatrix values="0 0 0 0 0 0 0 0 0 0 0 0 0 0 0 0 0 0 0.2 0" in="shadowBlurOuter1" result="shadowMatrixOuter1"/>
            <feMerge>
                <feMergeNode in="shadowMatrixOuter1"/>
                <feMergeNode in="SourceGraphic"/>
            </feMerge>
        </filter>
    </defs>
    <g transform="translate(-1470 -15)" fill="#222" filter="url(#a)" fill-rule="evenodd">
        <path d="M1479.515 29.408v-.763h2.64v.763h-.88v4.4h-.88v-4.4h-.88zm4.517 3.49v-2.903h.763v3.813h-.763v-.41a1.494 1.494 0 0 1-.557.395c-.215.088-.411.083-.587-.014-.176-.098-.264-.294-.264-.587v-3.197h.763v2.933c.039.215.127.298.264.25a.913.913 0 0 0 .381-.28zm2.816-2.933c.47 0 .704.313.704.939v2.112c0 .254-.064.46-.19.616a.627.627 0 0 1-.514.235.935.935 0 0 1-.396-.088c-.127-.059-.21-.118-.25-.176l-.087-.088v.293h-.763v-5.163h.763v1.643a.95.95 0 0 1 .733-.323zm-.088 2.963v-1.995c0-.215-.078-.342-.235-.381-.156-.04-.293.01-.41.147v2.376a.624.624 0 0 0 .264.161.31.31 0 0 0 .264-.03c.078-.048.117-.141.117-.278zm2.464-3.021c.313 0 .572.102.777.308.206.205.308.474.308.806v.968h-1.466v.734c0 .215.058.366.176.454.117.088.24.083.366-.014.127-.098.191-.245.191-.44v-.176h.733v.176c0 .489-.185.83-.557 1.026a1.132 1.132 0 0 1-1.115 0c-.371-.195-.557-.537-.557-1.026V31.02c0-.332.108-.601.323-.806.215-.206.489-.308.821-.308zm-.381 1.114v.382h.733v-.382c0-.293-.127-.44-.381-.44-.235 0-.352.147-.352.44zm-11.616-10.794c2.15-2.151 4.742-3.227 7.773-3.227 3.031 0 5.622 1.076 7.773 3.227 2.151 2.15 3.227 4.742 3.227 7.773 0 3.031-1.076 5.622-3.227 7.773-2.15 2.151-4.742 3.227-7.773 3.227-3.031 0-5.622-1.076-7.773-3.227-2.151-2.15-3.227-4.742-3.227-7.773 0-3.031 1.076-5.622 3.227-7.773zm10.354 5.25c.313 0 .626-.137.939-.41v.352h.968v-4.312h-.968v3.226c-.176.176-.332.264-.47.264-.097 0-.146-.068-.146-.205v-3.285h-.968v3.578c0 .528.215.792.645.792zm-3.754-3.226v2.082c0 .333.117.621.352.866.234.244.518.366.85.366.333 0 .621-.122.866-.366.244-.245.366-.533.366-.866v-2.082c0-.333-.122-.621-.366-.866a1.183 1.183 0 0 0-.866-.366c-.332 0-.616.122-.85.366a1.208 1.208 0 0 0-.352.866zm-2.552-2.611h-1.115l1.173 3.373v2.406h1.086v-2.406l1.144-3.373h-1.115l-.587 2.141-.586-2.141zm9.65 15.312c.196-.176.347-.572.455-1.188.108-.616.161-1.188.161-1.716l.03-.763c0-2.033-.215-3.265-.646-3.696-.195-.176-.782-.317-1.76-.425a25.531 25.531 0 0 0-2.786-.161l-1.35-.03c-3.52 0-5.485.206-5.896.616-.176.176-.317.572-.425 1.188a12.773 12.773 0 0 0-.19 1.716l-.03.792c0 2.015.215 3.237.645 3.667.196.176.783.318 1.76.425a32.05 32.05 0 0 0 2.787.191h1.35c3.52 0 5.485-.205 5.895-.616zM1485 24.773c-.196 0-.293-.107-.293-.322v-2.318c0-.195.107-.293.322-.293.196 0 .294.098.294.293v2.318c0 .215-.108.322-.323.322z"/>
    </g>
</svg>
